<?xml version="1.0" encoding="utf-8"?>
<!-- Generator: Adobe Illustrator 23.0.0, SVG Export Plug-In . SVG Version: 6.00 Build 0)  -->
<svg version="1.1" id="Camada_1" xmlns="http://www.w3.org/2000/svg" xmlns:xlink="http://www.w3.org/1999/xlink" x="0px" y="0px"
	 viewBox="0 0 68 68" style="enable-background:new 0 0 68 68;" xml:space="preserve">
<style type="text/css">
	.st0{fill:none;stroke:#D08634;stroke-width:2;stroke-opacity:0.1072;}
	.st1{fill:url(#SVGID_1_);}
	.st2{fill:url(#SVGID_2_);}
</style>
<title>icon5</title>
<desc>Created with Sketch.</desc>
<g id="Page-2">
	<g id="Artboard-Copy" transform="translate(-371.000000, -1915.000000)">
		<g id="Group-2" transform="translate(120.000000, 1575.000000)">
			<g id="Group-3" transform="translate(0.000000, 308.000000)">
				<g id="icon5" transform="translate(251.000000, 32.000000)">
					<circle class="st0" cx="34" cy="34" r="33"/>
					<linearGradient id="SVGID_1_" gradientUnits="userSpaceOnUse" x1="23.9449" y1="42.5689" x2="44.2145" y2="42.5689">
						<stop  offset="0" style="stop-color:#FF7533"/>
						<stop  offset="1" style="stop-color:#A54111"/>
					</linearGradient>
					<path class="st1" d="M35.3,43.8c-0.3,0.2-0.8,0.3-1.2,0.3c-0.4,0-0.9-0.1-1.2-0.3l0,0l-9-4.2v3.8c0,1.4,1.1,2.4,2.4,2.4h15.4
						c1.4,0,2.4-1.1,2.4-2.4v-4.3L35.3,43.8L35.3,43.8z"/>
					<linearGradient id="SVGID_2_" gradientUnits="userSpaceOnUse" x1="17.3333" y1="33.9565" x2="51" y2="33.9565">
						<stop  offset="0" style="stop-color:#FF7533"/>
						<stop  offset="1" style="stop-color:#A54111"/>
					</linearGradient>
					<path class="st2" d="M49.5,29.1L49.5,29.1L49.5,29.1c-0.2-0.2-0.3-0.2-0.4-0.3l-13.7-6.4l0,0c-0.3-0.2-0.8-0.3-1.2-0.3
						c-0.4,0-0.9,0.1-1.2,0.3l0,0l-14.2,7.4l0,0c-0.9,0.5-1.4,1.4-1.4,2.5c0,1.1,0.5,2,1.4,2.5l0,0l0.1,0.1c0.1,0.1,0.3,0.1,0.3,0.2
						l13.7,6.4l0,0c0.3,0.2,0.8,0.3,1.2,0.3c0.4,0,0.9-0.1,1.2-0.3l0,0l11.4-5.9v10.3h1.8V34.6l1-0.5l0,0c0.9-0.5,1.4-1.4,1.4-2.5
						S50.4,29.6,49.5,29.1z"/>
				</g>
			</g>
		</g>
	</g>
</g>
</svg>
