<?xml version="1.0" encoding="utf-8"?>
<!-- Generator: Adobe Illustrator 23.0.0, SVG Export Plug-In . SVG Version: 6.00 Build 0)  -->
<svg version="1.1" id="Camada_1" xmlns="http://www.w3.org/2000/svg" xmlns:xlink="http://www.w3.org/1999/xlink" x="0px" y="0px"
	 viewBox="0 0 68 68" style="enable-background:new 0 0 68 68;" xml:space="preserve">
<style type="text/css">
	.st0{fill:none;stroke:#D08634;stroke-width:2;stroke-opacity:0.1072;}
	.st1{fill:url(#SVGID_1_);}
</style>
<title>icon5 copy</title>
<desc>Created with Sketch.</desc>
<g id="Page-2">
	<g id="Artboard-Copy" transform="translate(-1001.000000, -1915.000000)">
		<g id="Group-2" transform="translate(120.000000, 1575.000000)">
			<g id="Group-3-Copy" transform="translate(630.000000, 308.000000)">
				<g id="icon5-copy" transform="translate(251.000000, 32.000000)">
					<circle class="st0" cx="34" cy="34" r="33"/>
				</g>
			</g>
		</g>
	</g>
</g>
<g>
	<g id="Page-2_1_">
		<g id="Artboard-Copy_1_" transform="translate(-1001.000000, -1915.000000)">
			<g id="Group-2_1_" transform="translate(120.000000, 1575.000000)">
				<g id="Group-3-Copy_1_" transform="translate(630.000000, 308.000000)">
					<g id="icon5-copy_1_" transform="translate(251.000000, 32.000000)">
						<circle class="st0" cx="34" cy="34" r="33"/>
					</g>
				</g>
			</g>
		</g>
	</g>
</g>
<g>
	
		<linearGradient id="SVGID_1_" gradientUnits="userSpaceOnUse" x1="18.8241" y1="732" x2="49.0856" y2="732" gradientTransform="matrix(1 0 0 1 0 -698)">
		<stop  offset="0" style="stop-color:#FF7533"/>
		<stop  offset="1" style="stop-color:#A54111"/>
	</linearGradient>
	<path class="st1" d="M27.5,31.5l4.7-6.2v-0.8H20.2v2.8h7.2l-4.5,6V34h2.1c2.8,0,4.5,1.2,4.5,3.4S27.8,41,25.5,41
		c-2,0-3.4-1.1-4.6-2.8l-2.1,1.6c1.3,2.4,3.6,4.2,6.7,4.2c3.8,0,7-2.6,7-6.4c0-1.6-0.5-3-1.5-4C30.1,32.3,29,31.7,27.5,31.5z
		 M47.3,26.6c-1.2-1.8-3-2.6-5.4-2.6c-2.4,0-4.2,0.9-5.4,2.7c-1.3,1.8-1.9,4.2-1.9,7.1c0,5.7,2.4,10.1,7.4,10.1s7.3-4.5,7.3-10.1
		C49,30.8,48.5,28.5,47.3,26.6z M41.8,41c-2.8,0-4.2-2.7-4.2-7.3c0-4.7,1.4-7,4.2-7c2.7,0,4.1,2.3,4.1,7C45.9,38.3,44.6,41,41.8,41z
		"/>
</g>
</svg>
