<?xml version="1.0" encoding="utf-8"?>
<!-- Generator: Adobe Illustrator 23.0.0, SVG Export Plug-In . SVG Version: 6.00 Build 0)  -->
<svg version="1.1" id="Camada_1" xmlns="http://www.w3.org/2000/svg" xmlns:xlink="http://www.w3.org/1999/xlink" x="0px" y="0px"
	 viewBox="0 0 68 68" style="enable-background:new 0 0 68 68;" xml:space="preserve">
<style type="text/css">
	.st0{fill:none;stroke:#D08634;stroke-width:2;stroke-opacity:0.1072;}
	.st1{fill:url(#SVGID_1_);}
</style>
<title>icon5 copy</title>
<desc>Created with Sketch.</desc>
<g id="Page-2">
	<g id="Artboard-Copy" transform="translate(-1001.000000, -1915.000000)">
		<g id="Group-2" transform="translate(120.000000, 1575.000000)">
			<g id="Group-3-Copy" transform="translate(630.000000, 308.000000)">
				<g id="icon5-copy" transform="translate(251.000000, 32.000000)">
					<circle class="st0" cx="34" cy="34" r="33"/>
				</g>
			</g>
		</g>
	</g>
	<g>
		<linearGradient id="SVGID_1_" gradientUnits="userSpaceOnUse" x1="20.7042" y1="34.9617" x2="47.5957" y2="34.9617">
			<stop  offset="0" style="stop-color:#FF7533"/>
			<stop  offset="1" style="stop-color:#A54111"/>
		</linearGradient>
		<path class="st1" d="M20.7,42c0,0.4,0.3,0.9,0.7,1l12.3,5.8c0,0,0,0,0.1,0c0,0,0.1,0,0.1,0c0,0,0.1,0,0.1,0c0,0,0.1,0,0.1,0
			c0,0,0.1,0,0.1,0c0,0,0.1,0,0.1,0c0,0,0.1,0,0.1,0c0,0,0,0,0.1,0l12.3-5.8c0.4-0.2,0.7-0.6,0.7-1V28.1c0,0,0-0.1,0-0.1
			c0-0.5-0.2-0.9-0.7-1.2l-12.3-5.8c0,0-0.1,0-0.1,0c0,0-0.1,0-0.1,0c-0.1,0-0.2,0-0.3,0c0,0,0,0,0,0s0,0,0,0c-0.1,0-0.2,0-0.3,0
			c0,0-0.1,0-0.1,0c0,0-0.1,0-0.1,0l-12.3,5.8c-0.5,0.2-0.7,0.7-0.7,1.2c0,0,0,0.1,0,0.1L20.7,42L20.7,42z M34.1,23.4l9.8,4.6
			l-9.8,4.6L24.4,28L34.1,23.4z M23,29.9l10,4.7V46l-10-4.7V29.9z M45.3,41.3l-10,4.7V34.6l10-4.7V41.3z"/>
	</g>
</g>
</svg>
