<?xml version="1.0" encoding="utf-8"?>
<!-- Generator: Adobe Illustrator 23.0.0, SVG Export Plug-In . SVG Version: 6.00 Build 0)  -->
<svg version="1.1" id="Camada_1" xmlns="http://www.w3.org/2000/svg" xmlns:xlink="http://www.w3.org/1999/xlink" x="0px" y="0px"
	 viewBox="0 0 68 68" style="enable-background:new 0 0 68 68;" xml:space="preserve">
<style type="text/css">
	.st0{fill:none;stroke:#D08634;stroke-width:2;stroke-opacity:0.1072;}
	.st1{fill:url(#SVGID_1_);}
</style>
<title>icon5 copy</title>
<desc>Created with Sketch.</desc>
<g>
	<g id="Page-2">
		<g id="Artboard-Copy" transform="translate(-1001.000000, -1915.000000)">
			<g id="Group-2" transform="translate(120.000000, 1575.000000)">
				<g id="Group-3-Copy" transform="translate(630.000000, 308.000000)">
					<g id="icon5-copy" transform="translate(251.000000, 32.000000)">
						<circle class="st0" cx="34" cy="34" r="33"/>
					</g>
				</g>
			</g>
		</g>
	</g>
	
		<linearGradient id="SVGID_1_" gradientUnits="userSpaceOnUse" x1="18.8209" y1="36" x2="49.1651" y2="36" gradientTransform="matrix(1 0 0 -1 0 70)">
		<stop  offset="0" style="stop-color:#FF7533"/>
		<stop  offset="1" style="stop-color:#A54111"/>
	</linearGradient>
	<path class="st1" d="M28.7,33.6c2.1-1.2,3.3-2.7,3.3-4.7c0-1.6-0.5-2.7-1.7-3.7c-1.2-0.9-2.7-1.3-4.4-1.3c-1.8,0-3.3,0.5-4.4,1.3
		c-1.2,0.8-1.7,2.1-1.7,3.7c0,2.1,1.2,3.5,3.3,4.7c-2.6,0.9-4.2,2.6-4.2,5c0,3.3,2.9,5.4,7,5.4s7-2.1,7-5.4
		C32.9,36.1,31.3,34.5,28.7,33.6z M22.7,29c0-1.6,1.3-2.6,3.2-2.6c1.8,0,3.1,1,3.1,2.6c0,1.5-1,2.2-3.2,3.1
		C23.7,31.2,22.7,30.4,22.7,29z M25.9,41.4c-2.5,0-3.9-1.2-3.9-2.9c0-1.7,1.3-2.7,3.9-3.6c2.6,0.9,3.9,1.8,3.9,3.6
		C29.7,40.2,28.4,41.4,25.9,41.4z M42.8,30.8c-0.4,0-0.5,0-0.8,0.1l4.7-6.6H43l-4.9,6.9c-0.6,1-1.2,1.7-1.5,2.2
		c-0.3,0.5-0.5,1.1-0.8,1.8c-0.2,0.6-0.4,1.4-0.4,2.1c-0.1,3.8,3.2,6.8,6.9,6.7c3.7,0,6.9-2.9,6.9-6.7
		C49.1,33.6,46.1,30.8,42.8,30.8z M44.9,40c-0.7,0.7-1.6,1.1-2.7,1.1c-1.1,0-1.9-0.4-2.7-1.1s-1.1-1.6-1.1-2.7s0.4-2,1.1-2.7
		c0.7-0.7,1.6-1.1,2.7-1.1c1.1,0,1.9,0.4,2.7,1.1s1.1,1.6,1.1,2.7C46.1,38.3,45.7,39.3,44.9,40z"/>
</g>
</svg>
