<?xml version="1.0" encoding="utf-8"?>
<!-- Generator: Adobe Illustrator 23.0.0, SVG Export Plug-In . SVG Version: 6.00 Build 0)  -->
<svg version="1.1" id="Camada_1" xmlns="http://www.w3.org/2000/svg" xmlns:xlink="http://www.w3.org/1999/xlink" x="0px" y="0px"
	 viewBox="0 0 68 68" style="enable-background:new 0 0 68 68;" xml:space="preserve">
<style type="text/css">
	.st0{fill:none;stroke:#D08634;stroke-width:2;stroke-opacity:0.1072;}
	.st1{fill-rule:evenodd;clip-rule:evenodd;fill:url(#SVGID_1_);}
	.st2{fill-rule:evenodd;clip-rule:evenodd;fill:url(#SVGID_2_);}
	.st3{fill-rule:evenodd;clip-rule:evenodd;fill:url(#SVGID_3_);}
</style>
<title>icon5 copy</title>
<desc>Created with Sketch.</desc>
<g id="Page-2">
	<g id="Artboard-Copy" transform="translate(-1001.000000, -1915.000000)">
		<g id="Group-2" transform="translate(120.000000, 1575.000000)">
			<g id="Group-3-Copy" transform="translate(630.000000, 308.000000)">
				<g id="icon5-copy" transform="translate(251.000000, 32.000000)">
					<circle class="st0" cx="34" cy="34" r="33"/>
				</g>
			</g>
		</g>
	</g>
</g>
<g>
	<linearGradient id="SVGID_1_" gradientUnits="userSpaceOnUse" x1="21.4974" y1="34" x2="46.5027" y2="34">
		<stop  offset="0" style="stop-color:#FF7533"/>
		<stop  offset="1" style="stop-color:#A54111"/>
	</linearGradient>
	<path class="st1" d="M45.1,25.7h-1.4v-1.4c0-0.8-0.6-1.4-1.4-1.4H22.9c-0.8,0-1.4,0.6-1.4,1.4v16.7c0,0.8,0.6,1.4,1.4,1.4h1.4v1.4
		c0,0.8,0.6,1.4,1.4,1.4h19.4c0.8,0,1.4-0.6,1.4-1.4V27.1C46.5,26.3,45.9,25.7,45.1,25.7L45.1,25.7z M24.3,27.1v13.9l-1.4,0
		c0,0,0,0,0,0V24.3c0,0,0,0,0,0l19.4,0c0,0,0,0,0,0v1.4l-16.7,0C24.9,25.7,24.3,26.3,24.3,27.1L24.3,27.1L24.3,27.1z M45.1,43.7
		C45.1,43.7,45.1,43.7,45.1,43.7l-19.4,0c0,0,0,0,0,0V27.1c0,0,0,0,0,0h19.4c0,0,0,0,0,0V43.7L45.1,43.7z"/>
	<linearGradient id="SVGID_2_" gradientUnits="userSpaceOnUse" x1="36.3444" y1="33.6521" x2="40.5122" y2="33.6521">
		<stop  offset="0" style="stop-color:#FF7533"/>
		<stop  offset="1" style="stop-color:#A54111"/>
	</linearGradient>
	<path class="st2" d="M40.5,33.7c0,1.2-0.9,2.1-2.1,2.1c-1.2,0-2.1-0.9-2.1-2.1c0-1.2,0.9-2.1,2.1-2.1
		C39.6,31.6,40.5,32.5,40.5,33.7z"/>
	<linearGradient id="SVGID_3_" gradientUnits="userSpaceOnUse" x1="27.0543" y1="36.7785" x2="43.7244" y2="36.7785">
		<stop  offset="0" style="stop-color:#FF7533"/>
		<stop  offset="1" style="stop-color:#A54111"/>
	</linearGradient>
	<polygon class="st3" points="43.7,42.3 27.1,42.3 27.1,39.6 31.9,31.2 37.5,38.2 38.9,38.2 43.7,34 	"/>
</g>
</svg>
