<?xml version="1.0" encoding="utf-8"?>
<!-- Generator: Adobe Illustrator 23.0.0, SVG Export Plug-In . SVG Version: 6.00 Build 0)  -->
<svg version="1.1" id="Camada_1" xmlns="http://www.w3.org/2000/svg" xmlns:xlink="http://www.w3.org/1999/xlink" x="0px" y="0px"
	 viewBox="0 0 68 68" style="enable-background:new 0 0 68 68;" xml:space="preserve">
<style type="text/css">
	.st0{fill:none;stroke:#D08634;stroke-width:2;stroke-opacity:0.1072;}
	.st1{fill:url(#SVGID_1_);}
	.st2{fill:url(#SVGID_2_);}
</style>
<title>icon5 copy</title>
<desc>Created with Sketch.</desc>
<g id="Page-2">
	<g id="Artboard-Copy" transform="translate(-1001.000000, -1915.000000)">
		<g id="Group-2" transform="translate(120.000000, 1575.000000)">
			<g id="Group-3-Copy" transform="translate(630.000000, 308.000000)">
				<g id="icon5-copy" transform="translate(251.000000, 32.000000)">
					<circle class="st0" cx="34" cy="34" r="33"/>
				</g>
			</g>
		</g>
	</g>
	<g>
		
			<linearGradient id="SVGID_1_" gradientUnits="userSpaceOnUse" x1="20.5544" y1="35.95" x2="47.4544" y2="35.95" gradientTransform="matrix(1 0 0 -1 0 70)">
			<stop  offset="0" style="stop-color:#FF7533"/>
			<stop  offset="1" style="stop-color:#A54111"/>
		</linearGradient>
		<path class="st1" d="M46.4,20.6H21.6c-0.6,0-1.1,0.5-1.1,1.1v24.7c0,0.6,0.5,1.1,1.1,1.1h24.7c0.6,0,1.1-0.5,1.1-1.1V21.6
			C47.4,21,47,20.6,46.4,20.6z M45.3,45.3H22.7V22.7h22.6L45.3,45.3L45.3,45.3z"/>
	</g>
</g>
<linearGradient id="SVGID_2_" gradientUnits="userSpaceOnUse" x1="24.8817" y1="36" x2="43.1234" y2="36" gradientTransform="matrix(1 0 0 -1 0 70)">
	<stop  offset="0" style="stop-color:#FF7533"/>
	<stop  offset="1" style="stop-color:#A54111"/>
</linearGradient>
<path class="st2" d="M43.1,24.9H37V31h6.1V24.9z M24.9,24.9V31H31v-6.1H24.9z M31,31v6h-6.1v6.1H31V37h6v6.1h6.1V37H37v-6H31z"/>
</svg>
