<?xml version="1.0" encoding="utf-8"?>
<!-- Generator: Adobe Illustrator 23.0.0, SVG Export Plug-In . SVG Version: 6.00 Build 0)  -->
<svg version="1.1" id="Camada_1" xmlns="http://www.w3.org/2000/svg" xmlns:xlink="http://www.w3.org/1999/xlink" x="0px" y="0px"
	 viewBox="0 0 68 68" style="enable-background:new 0 0 68 68;" xml:space="preserve">
<style type="text/css">
	.st0{fill:none;stroke:#D08634;stroke-width:2;stroke-opacity:0.1072;}
	.st1{fill:url(#SVGID_1_);}
</style>
<title>icon5 copy</title>
<desc>Created with Sketch.</desc>
<g id="Page-2">
	<g id="Artboard-Copy" transform="translate(-1001.000000, -1915.000000)">
		<g id="Group-2" transform="translate(120.000000, 1575.000000)">
			<g id="Group-3-Copy" transform="translate(630.000000, 308.000000)">
				<g id="icon5-copy" transform="translate(251.000000, 32.000000)">
					<circle class="st0" cx="34" cy="34" r="33"/>
				</g>
			</g>
		</g>
	</g>
</g>
<linearGradient id="SVGID_1_" gradientUnits="userSpaceOnUse" x1="18.8246" y1="36" x2="49.1754" y2="36" gradientTransform="matrix(1 0 0 -1 0 70)">
	<stop  offset="0" style="stop-color:#FF7533"/>
	<stop  offset="1" style="stop-color:#A54111"/>
</linearGradient>
<path class="st1" d="M43,36.7l5.7-6.3h-3.8l-5.5,6.3l6.2,8h3.6L43,36.7z M36.2,44.7h3.1V22.9h-3.1V44.7z M28.7,34.7
	c2.1-1.2,3.3-2.6,3.3-4.6c0-1.5-0.5-2.7-1.7-3.6c-1.2-0.9-2.6-1.3-4.3-1.3c-1.8,0-3.3,0.5-4.3,1.3c-1.2,0.8-1.7,2.1-1.7,3.6
	c0,2.1,1.2,3.4,3.3,4.6c-2.5,0.9-4.2,2.5-4.2,5c0,3.3,2.9,5.3,7,5.3s7-2.1,7-5.3C32.7,37.3,31.1,35.7,28.7,34.7z M22.7,30.3
	c0-1.5,1.3-2.5,3.2-2.5c1.8,0,3.1,1,3.1,2.5c0,1.4-1,2.2-3.2,3.1C23.6,32.5,22.7,31.6,22.7,30.3z M25.8,42.5c-2.4,0-3.9-1.2-3.9-2.9
	s1.3-2.6,3.9-3.5c2.5,0.9,3.9,1.8,3.9,3.5C29.7,41.3,28.3,42.5,25.8,42.5z"/>
</svg>
