<?xml version="1.0" encoding="utf-8"?>
<!-- Generator: Adobe Illustrator 23.0.0, SVG Export Plug-In . SVG Version: 6.00 Build 0)  -->
<svg version="1.1" id="Camada_1" xmlns="http://www.w3.org/2000/svg" xmlns:xlink="http://www.w3.org/1999/xlink" x="0px" y="0px"
	 viewBox="0 0 68 68" style="enable-background:new 0 0 68 68;" xml:space="preserve">
<style type="text/css">
	.st0{fill:none;stroke:#D08634;stroke-width:2;stroke-opacity:0.1072;}
	.st1{fill:url(#SVGID_1_);}
</style>
<title>icon5 copy</title>
<desc>Created with Sketch.</desc>
<g id="Page-2_1_">
	<g id="Artboard-Copy_1_" transform="translate(-1001.000000, -1915.000000)">
		<g id="Group-2_1_" transform="translate(120.000000, 1575.000000)">
			<g id="Group-3-Copy_1_" transform="translate(630.000000, 308.000000)">
				<g id="icon5-copy_1_" transform="translate(251.000000, 32.000000)">
					<circle class="st0" cx="34" cy="34" r="33"/>
				</g>
			</g>
		</g>
	</g>
</g>
<g transform="translate(882.32636,-1385.2191)">
	
		<linearGradient id="SVGID_1_" gradientUnits="userSpaceOnUse" x1="-1744.0984" y1="35.9691" x2="-1717.057" y2="35.9691" gradientTransform="matrix(1 0 0 -1 882.3264 1455.2191)">
		<stop  offset="0" style="stop-color:#FF7533"/>
		<stop  offset="1" style="stop-color:#A54111"/>
	</linearGradient>
	<path class="st1" d="M-849.7,1429.7c0-2.5,0-3.1,0-3.1s0.2,0,0.3,0c0.4,0.1,1.6,0.1,2.1,0c0.2,0,0.3,0,0.3,0s0,0.5,0,3.1v3.1h-1.4
		h-1.4v-3.1H-849.7z M-841.9,1427.7c-1.2-1.2-2.2-2.2-2.2-2.2s0.2-0.1,0.4-0.3c0.5-0.4,1-0.9,1.3-1.3l0.3-0.4l2.2,2.2l2.2,2.2l-1,1
		c-0.5,0.5-1,1-1,1S-840.7,1428.8-841.9,1427.7L-841.9,1427.7z M-857.8,1428.8l-1-1l2.2-2.2c1.8-1.8,2.2-2.2,2.2-2.1
		c0,0,0.1,0.2,0.3,0.4c0.3,0.4,0.9,0.9,1.3,1.3c0.2,0.2,0.4,0.3,0.4,0.3l-4.3,4.3C-856.8,1429.8-857.3,1429.3-857.8,1428.8
		L-857.8,1428.8z M-861.8,1419.3v-1.4h3.1c1.7,0,3.1,0,3.1,0s0,0.2,0,0.3c-0.1,0.4-0.1,1.6,0,2.1c0,0.2,0,0.3,0,0.3s-0.5,0-3.1,0
		h-3.1V1419.3z M-840.9,1420.6c0,0,0-0.2,0-0.3c0-0.2,0-0.5,0-1s0-0.8,0-1s0-0.3,0-0.3s1.4,0,3.1,0h3.1v1.4v1.4h-3.1
		C-840.3,1420.7-840.9,1420.7-840.9,1420.6z M-856.7,1412.9l-2.2-2.2l1-1l1-1l2.2,2.2l2.2,2.2l-0.4,0.3c-0.5,0.4-1,0.9-1.3,1.3
		c-0.2,0.2-0.3,0.4-0.3,0.4S-855.5,1414-856.7,1412.9L-856.7,1412.9z M-842.3,1414.7c-0.3-0.4-0.9-1-1.3-1.3
		c-0.2-0.1-0.4-0.3-0.4-0.3s0.3-0.4,2.1-2.2l2.2-2.2l1,1c0.5,0.5,1,1,1,1l-4.3,4.3C-842.1,1415-842.2,1414.9-842.3,1414.7
		L-842.3,1414.7z M-849.7,1408.8v-3.1h1.4h1.4v3.1c0,2.5,0,3.1,0,3.1s-0.2,0-0.3,0c-0.2,0-0.5,0-1,0s-0.8,0-1,0s-0.3,0-0.3,0
		C-849.7,1411.9-849.7,1411.3-849.7,1408.8L-849.7,1408.8z"/>
</g>
</svg>
